STARTFONT 2.1
FONT -Monotype-Plantin-Bold-R-Normal--10-100-75-75-P-60-iso8859-5
SIZE 10 75 75
FONTBOUNDINGBOX 14 12 -2 -2

STARTPROPERTIES 24
FOUNDRY "Monotype"
FAMILY_NAME "Plantin"
WEIGHT_NAME "Bold"
SLANT "R"
SETWIDTH_NAME "Normal"
ADD_STYLE_NAME ""
PIXEL_SIZE 10
POINT_SIZE 100
RESOLUTION_X 75
RESOLUTION_Y 75
SPACING "P"
AVERAGE_WIDTH 60
CHARSET_REGISTRY "iso8859"
CHARSET_ENCODING "5"
FACE_NAME "Plantin Bold ISO Latin Cyrillic"
_DEC_DEVICE_FONTNAMES "PS=plantin-b-latcyrillic"
COPYRIGHT "Copyright (c) 1994 Monotype Typography Ltd."
CAP_HEIGHT 8
X_HEIGHT 5
WEIGHT 10
QUAD_WIDTH 7
DEFAULT_CHAR 160
FONT_DESCENT 2
FONT_ASCENT 10
ENDPROPERTIES

CHARS 191

STARTCHAR space
ENCODING 32
SWIDTH 250 0
DWIDTH 3 0
BBX 0 0 0 0
BITMAP
ENDCHAR

STARTCHAR exclam
ENCODING 33
SWIDTH 344 0
DWIDTH 3 0
BBX 2 7 0 0
BITMAP
C0
C0
C0
40
00
C0
C0
ENDCHAR

STARTCHAR quotedbl
ENCODING 34
SWIDTH 552 0
DWIDTH 6 0
BBX 3 3 1 4
BITMAP
A0
A0
A0
ENDCHAR

STARTCHAR numbersign
ENCODING 35
SWIDTH 500 0
DWIDTH 5 0
BBX 7 7 -1 0
BITMAP
14
14
7E
28
FC
50
50
ENDCHAR

STARTCHAR dollar
ENCODING 36
SWIDTH 521 0
DWIDTH 5 0
BBX 4 8 0 -1
BITMAP
20
70
C0
60
30
30
E0
20
ENDCHAR

STARTCHAR percent
ENCODING 37
SWIDTH 927 0
DWIDTH 9 0
BBX 8 7 0 0
BITMAP
44
A4
A8
4A
15
25
22
ENDCHAR

STARTCHAR ampersand
ENCODING 38
SWIDTH 781 0
DWIDTH 8 0
BBX 8 7 0 0
BITMAP
10
28
37
5A
CC
CC
76
ENDCHAR

STARTCHAR quoteright
ENCODING 39
SWIDTH 344 0
DWIDTH 3 0
BBX 2 4 0 3
BITMAP
C0
C0
40
80
ENDCHAR

STARTCHAR parenleft
ENCODING 40
SWIDTH 417 0
DWIDTH 4 0
BBX 3 9 0 -2
BITMAP
20
40
C0
80
80
80
C0
40
20
ENDCHAR

STARTCHAR parenright
ENCODING 41
SWIDTH 417 0
DWIDTH 4 0
BBX 3 9 0 -2
BITMAP
80
40
60
20
20
20
60
40
80
ENDCHAR

STARTCHAR asterisk
ENCODING 42
SWIDTH 510 0
DWIDTH 5 0
BBX 5 5 0 2
BITMAP
20
20
F8
70
50
ENDCHAR

STARTCHAR plus
ENCODING 43
SWIDTH 667 0
DWIDTH 7 0
BBX 5 5 1 1
BITMAP
20
20
F8
20
20
ENDCHAR

STARTCHAR comma
ENCODING 44
SWIDTH 344 0
DWIDTH 3 0
BBX 2 4 0 -2
BITMAP
C0
C0
40
80
ENDCHAR

STARTCHAR minus
ENCODING 45
SWIDTH 667 0
DWIDTH 7 0
BBX 5 1 1 3
BITMAP
F8
ENDCHAR

STARTCHAR period
ENCODING 46
SWIDTH 344 0
DWIDTH 3 0
BBX 2 2 0 0
BITMAP
C0
C0
ENDCHAR

STARTCHAR slash
ENCODING 47
SWIDTH 281 0
DWIDTH 3 0
BBX 3 7 0 0
BITMAP
20
20
40
40
40
80
80
ENDCHAR

STARTCHAR zero
ENCODING 48
SWIDTH 521 0
DWIDTH 5 0
BBX 4 7 0 0
BITMAP
60
B0
B0
B0
B0
B0
60
ENDCHAR

STARTCHAR one
ENCODING 49
SWIDTH 521 0
DWIDTH 5 0
BBX 4 7 0 0
BITMAP
E0
60
60
60
60
60
F0
ENDCHAR

STARTCHAR two
ENCODING 50
SWIDTH 521 0
DWIDTH 5 0
BBX 5 7 0 0
BITMAP
60
B0
30
30
60
88
F0
ENDCHAR

STARTCHAR three
ENCODING 51
SWIDTH 521 0
DWIDTH 5 0
BBX 4 7 0 0
BITMAP
60
B0
30
60
30
B0
60
ENDCHAR

STARTCHAR four
ENCODING 52
SWIDTH 521 0
DWIDTH 5 0
BBX 5 7 0 0
BITMAP
10
30
70
B0
F8
30
30
ENDCHAR

STARTCHAR five
ENCODING 53
SWIDTH 521 0
DWIDTH 5 0
BBX 4 7 0 0
BITMAP
70
60
C0
60
30
30
E0
ENDCHAR

STARTCHAR six
ENCODING 54
SWIDTH 521 0
DWIDTH 5 0
BBX 4 7 0 0
BITMAP
30
40
80
E0
B0
B0
60
ENDCHAR

STARTCHAR seven
ENCODING 55
SWIDTH 521 0
DWIDTH 5 0
BBX 4 7 0 0
BITMAP
F0
90
30
20
60
40
40
ENDCHAR

STARTCHAR eight
ENCODING 56
SWIDTH 521 0
DWIDTH 5 0
BBX 4 7 0 0
BITMAP
60
B0
B0
60
B0
B0
60
ENDCHAR

STARTCHAR nine
ENCODING 57
SWIDTH 521 0
DWIDTH 5 0
BBX 4 7 0 0
BITMAP
60
D0
D0
70
10
20
C0
ENDCHAR

STARTCHAR colon
ENCODING 58
SWIDTH 344 0
DWIDTH 3 0
BBX 2 5 0 0
BITMAP
C0
C0
00
C0
C0
ENDCHAR

STARTCHAR semicolon
ENCODING 59
SWIDTH 344 0
DWIDTH 3 0
BBX 2 7 0 -2
BITMAP
C0
C0
00
C0
C0
40
80
ENDCHAR

STARTCHAR less
ENCODING 60
SWIDTH 667 0
DWIDTH 7 0
BBX 5 5 1 1
BITMAP
08
38
E0
38
08
ENDCHAR

STARTCHAR equal
ENCODING 61
SWIDTH 667 0
DWIDTH 7 0
BBX 5 3 1 2
BITMAP
F8
00
F8
ENDCHAR

STARTCHAR greater
ENCODING 62
SWIDTH 667 0
DWIDTH 7 0
BBX 5 5 1 1
BITMAP
80
E0
38
E0
80
ENDCHAR

STARTCHAR question
ENCODING 63
SWIDTH 458 0
DWIDTH 5 0
BBX 3 7 1 0
BITMAP
C0
60
60
C0
00
C0
C0
ENDCHAR

STARTCHAR at
ENCODING 64
SWIDTH 927 0
DWIDTH 9 0
BBX 9 9 0 -2
BITMAP
1E00
6100
4E80
9280
B480
B500
5E80
6100
1E00
ENDCHAR

STARTCHAR A
ENCODING 65
SWIDTH 781 0
DWIDTH 7 0
BBX 8 7 -1 0
BITMAP
18
18
2C
2C
7E
46
EF
ENDCHAR

STARTCHAR B
ENCODING 66
SWIDTH 781 0
DWIDTH 8 0
BBX 7 7 0 0
BITMAP
FC
66
66
7C
66
66
FC
ENDCHAR

STARTCHAR C
ENCODING 67
SWIDTH 802 0
DWIDTH 7 0
BBX 6 7 0 0
BITMAP
3C
64
C0
C0
C0
64
38
ENDCHAR

STARTCHAR D
ENCODING 68
SWIDTH 875 0
DWIDTH 9 0
BBX 8 7 0 0
BITMAP
FC
66
63
63
63
66
FC
ENDCHAR

STARTCHAR E
ENCODING 69
SWIDTH 750 0
DWIDTH 8 0
BBX 7 7 0 0
BITMAP
FE
62
68
78
68
62
FE
ENDCHAR

STARTCHAR F
ENCODING 70
SWIDTH 687 0
DWIDTH 7 0
BBX 7 7 0 0
BITMAP
FE
62
68
78
68
60
F0
ENDCHAR

STARTCHAR G
ENCODING 71
SWIDTH 844 0
DWIDTH 8 0
BBX 8 7 0 0
BITMAP
3E
62
C0
CF
C6
66
3C
ENDCHAR

STARTCHAR H
ENCODING 72
SWIDTH 875 0
DWIDTH 9 0
BBX 8 7 0 0
BITMAP
E7
66
66
7E
66
66
E7
ENDCHAR

STARTCHAR I
ENCODING 73
SWIDTH 406 0
DWIDTH 5 0
BBX 4 7 0 0
BITMAP
F0
60
60
60
60
60
F0
ENDCHAR

STARTCHAR J
ENCODING 74
SWIDTH 406 0
DWIDTH 5 0
BBX 5 9 -1 -2
BITMAP
78
30
30
30
30
30
30
20
C0
ENDCHAR

STARTCHAR K
ENCODING 75
SWIDTH 781 0
DWIDTH 8 0
BBX 8 7 0 0
BITMAP
F6
64
68
78
6C
66
F7
ENDCHAR

STARTCHAR L
ENCODING 76
SWIDTH 687 0
DWIDTH 7 0
BBX 6 7 0 0
BITMAP
F0
60
60
60
60
64
FC
ENDCHAR

STARTCHAR M
ENCODING 77
SWIDTH 1010 0
DWIDTH 11 0
BBX 10 7 0 0
BITMAP
F1C0
7180
7A80
5A80
5C80
4C80
E9C0
ENDCHAR

STARTCHAR N
ENCODING 78
SWIDTH 792 0
DWIDTH 9 0
BBX 8 7 0 0
BITMAP
E7
72
7A
5E
4E
46
E2
ENDCHAR

STARTCHAR O
ENCODING 79
SWIDTH 875 0
DWIDTH 9 0
BBX 8 7 0 0
BITMAP
3C
66
C3
C3
C3
66
3C
ENDCHAR

STARTCHAR P
ENCODING 80
SWIDTH 729 0
DWIDTH 7 0
BBX 7 7 0 0
BITMAP
FC
66
66
6C
60
60
F0
ENDCHAR

STARTCHAR Q
ENCODING 81
SWIDTH 865 0
DWIDTH 9 0
BBX 8 9 0 -2
BITMAP
3C
66
C3
C3
C3
66
3C
18
0E
ENDCHAR

STARTCHAR R
ENCODING 82
SWIDTH 771 0
DWIDTH 8 0
BBX 8 7 0 0
BITMAP
FC
66
66
7C
6C
66
F7
ENDCHAR

STARTCHAR S
ENCODING 83
SWIDTH 656 0
DWIDTH 7 0
BBX 6 7 0 0
BITMAP
7C
C4
E0
78
1C
8C
F8
ENDCHAR

STARTCHAR T
ENCODING 84
SWIDTH 740 0
DWIDTH 7 0
BBX 6 7 0 0
BITMAP
FC
B4
30
30
30
30
78
ENDCHAR

STARTCHAR U
ENCODING 85
SWIDTH 833 0
DWIDTH 8 0
BBX 7 7 0 0
BITMAP
E6
64
64
64
64
64
38
ENDCHAR

STARTCHAR V
ENCODING 86
SWIDTH 729 0
DWIDTH 6 0
BBX 7 7 -1 0
BITMAP
EE
64
64
38
38
10
10
ENDCHAR

STARTCHAR W
ENCODING 87
SWIDTH 1031 0
DWIDTH 10 0
BBX 11 7 -1 0
BITMAP
EEE0
6C40
6640
3F80
3B80
1100
1100
ENDCHAR

STARTCHAR X
ENCODING 88
SWIDTH 781 0
DWIDTH 7 0
BBX 8 7 -1 0
BITMAP
F7
62
3C
18
3C
46
EF
ENDCHAR

STARTCHAR Y
ENCODING 89
SWIDTH 729 0
DWIDTH 7 0
BBX 8 7 -1 0
BITMAP
F7
62
34
18
18
18
3C
ENDCHAR

STARTCHAR Z
ENCODING 90
SWIDTH 687 0
DWIDTH 7 0
BBX 6 7 0 0
BITMAP
FC
8C
18
30
30
64
FC
ENDCHAR

STARTCHAR bracketleft
ENCODING 91
SWIDTH 396 0
DWIDTH 4 0
BBX 3 9 0 -2
BITMAP
E0
C0
C0
C0
C0
C0
C0
C0
E0
ENDCHAR

STARTCHAR backslash
ENCODING 92
SWIDTH 281 0
DWIDTH 3 0
BBX 3 7 0 0
BITMAP
80
80
C0
40
60
20
20
ENDCHAR

STARTCHAR bracketright
ENCODING 93
SWIDTH 396 0
DWIDTH 4 0
BBX 3 9 0 -2
BITMAP
E0
60
60
60
60
60
60
60
E0
ENDCHAR

STARTCHAR asciicircum
ENCODING 94
SWIDTH 583 0
DWIDTH 6 0
BBX 5 4 0 3
BITMAP
20
70
50
88
ENDCHAR

STARTCHAR underscore
ENCODING 95
SWIDTH 500 0
DWIDTH 5 0
BBX 5 1 0 -2
BITMAP
F8
ENDCHAR

STARTCHAR quoteleft
ENCODING 96
SWIDTH 344 0
DWIDTH 3 0
BBX 2 4 0 3
BITMAP
40
80
C0
C0
ENDCHAR

STARTCHAR a
ENCODING 97
SWIDTH 562 0
DWIDTH 6 0
BBX 6 5 0 0
BITMAP
70
18
78
D8
6C
ENDCHAR

STARTCHAR b
ENCODING 98
SWIDTH 604 0
DWIDTH 6 0
BBX 6 7 -1 0
BITMAP
E0
60
78
6C
6C
6C
38
ENDCHAR

STARTCHAR c
ENCODING 99
SWIDTH 521 0
DWIDTH 5 0
BBX 5 5 0 0
BITMAP
78
C8
C0
C8
70
ENDCHAR

STARTCHAR d
ENCODING 100
SWIDTH 615 0
DWIDTH 6 0
BBX 6 7 0 0
BITMAP
38
18
78
D8
D8
D8
6C
ENDCHAR

STARTCHAR e
ENCODING 101
SWIDTH 521 0
DWIDTH 5 0
BBX 5 5 0 0
BITMAP
70
D8
F8
C0
78
ENDCHAR

STARTCHAR f
ENCODING 102
SWIDTH 354 0
DWIDTH 4 0
BBX 5 7 -1 0
BITMAP
38
60
F0
60
60
60
F0
ENDCHAR

STARTCHAR g
ENCODING 103
SWIDTH 552 0
DWIDTH 6 0
BBX 6 7 0 -2
BITMAP
74
D8
70
C0
F0
D8
70
ENDCHAR

STARTCHAR h
ENCODING 104
SWIDTH 625 0
DWIDTH 6 0
BBX 7 7 -1 0
BITMAP
E0
60
78
6C
6C
6C
EE
ENDCHAR

STARTCHAR i
ENCODING 105
SWIDTH 333 0
DWIDTH 3 0
BBX 4 7 -1 0
BITMAP
60
00
E0
60
60
60
F0
ENDCHAR

STARTCHAR j
ENCODING 106
SWIDTH 313 0
DWIDTH 3 0
BBX 3 9 -1 -2
BITMAP
60
00
E0
60
60
60
60
60
C0
ENDCHAR

STARTCHAR k
ENCODING 107
SWIDTH 552 0
DWIDTH 6 0
BBX 6 7 -1 0
BITMAP
E0
60
6C
68
70
68
EC
ENDCHAR

STARTCHAR l
ENCODING 108
SWIDTH 312 0
DWIDTH 3 0
BBX 4 7 -1 0
BITMAP
E0
60
60
60
60
60
F0
ENDCHAR

STARTCHAR m
ENCODING 109
SWIDTH 979 0
DWIDTH 10 0
BBX 10 5 0 0
BITMAP
ED80
7F80
6D80
6D80
EDC0
ENDCHAR

STARTCHAR n
ENCODING 110
SWIDTH 625 0
DWIDTH 6 0
BBX 7 5 -1 0
BITMAP
EC
7C
6C
6C
EE
ENDCHAR

STARTCHAR o
ENCODING 111
SWIDTH 573 0
DWIDTH 6 0
BBX 5 5 0 0
BITMAP
70
D8
D8
D8
70
ENDCHAR

STARTCHAR p
ENCODING 112
SWIDTH 615 0
DWIDTH 6 0
BBX 6 7 -1 -2
BITMAP
F8
6C
6C
6C
78
60
F0
ENDCHAR

STARTCHAR q
ENCODING 113
SWIDTH 615 0
DWIDTH 6 0
BBX 6 7 0 -2
BITMAP
78
D8
D8
D8
78
18
3C
ENDCHAR

STARTCHAR r
ENCODING 114
SWIDTH 479 0
DWIDTH 4 0
BBX 5 5 -1 0
BITMAP
D8
70
60
60
F0
ENDCHAR

STARTCHAR s
ENCODING 115
SWIDTH 458 0
DWIDTH 5 0
BBX 4 5 0 0
BITMAP
70
C0
70
30
E0
ENDCHAR

STARTCHAR t
ENCODING 116
SWIDTH 375 0
DWIDTH 3 0
BBX 4 6 -1 0
BITMAP
60
F0
60
60
60
30
ENDCHAR

STARTCHAR u
ENCODING 117
SWIDTH 625 0
DWIDTH 6 0
BBX 7 5 -1 0
BITMAP
EC
6C
6C
7C
6E
ENDCHAR

STARTCHAR v
ENCODING 118
SWIDTH 542 0
DWIDTH 5 0
BBX 6 5 -1 0
BITMAP
EC
68
68
30
20
ENDCHAR

STARTCHAR w
ENCODING 119
SWIDTH 771 0
DWIDTH 8 0
BBX 9 5 -1 0
BITMAP
ED80
6D00
6D00
3200
1200
ENDCHAR

STARTCHAR x
ENCODING 120
SWIDTH 552 0
DWIDTH 7 0
BBX 6 5 0 0
BITMAP
CC
70
30
38
CC
ENDCHAR

STARTCHAR y
ENCODING 121
SWIDTH 542 0
DWIDTH 5 0
BBX 6 7 -1 -2
BITMAP
EC
68
68
30
30
20
C0
ENDCHAR

STARTCHAR z
ENCODING 122
SWIDTH 510 0
DWIDTH 6 0
BBX 5 5 0 0
BITMAP
F8
98
30
68
F8
ENDCHAR

STARTCHAR braceleft
ENCODING 123
SWIDTH 396 0
DWIDTH 4 0
BBX 3 9 0 -2
BITMAP
20
40
C0
40
80
40
C0
40
20
ENDCHAR

STARTCHAR bar
ENCODING 124
SWIDTH 219 0
DWIDTH 2 0
BBX 1 9 0 -2
BITMAP
80
80
80
80
80
80
80
80
80
ENDCHAR

STARTCHAR braceright
ENCODING 125
SWIDTH 396 0
DWIDTH 4 0
BBX 3 9 0 -2
BITMAP
80
40
60
40
20
40
60
40
80
ENDCHAR

STARTCHAR asciitilde
ENCODING 126
SWIDTH 521 0
DWIDTH 5 0
BBX 5 2 0 2
BITMAP
68
B0
ENDCHAR

STARTCHAR space
ENCODING 160
SWIDTH 250 0
DWIDTH 3 0
BBX 0 0 0 0
BITMAP
ENDCHAR

STARTCHAR afii10023
ENCODING 161
SWIDTH 750 0
DWIDTH 8 0
BBX 7 9 0 0
BITMAP
6C
00
FE
62
68
78
68
62
FE
ENDCHAR

STARTCHAR afii10051
ENCODING 162
SWIDTH 850 0
DWIDTH 8 0
BBX 8 7 -1 0
BITMAP
FC
B4
30
3E
33
33
76
ENDCHAR

STARTCHAR afii10052
ENCODING 163
SWIDTH 646 0
DWIDTH 6 0
BBX 6 10 0 0
BITMAP
08
10
00
FC
64
60
60
60
60
F0
ENDCHAR

STARTCHAR afii10053
ENCODING 164
SWIDTH 813 0
DWIDTH 8 0
BBX 7 7 0 0
BITMAP
3E
62
C0
F8
C0
62
3C
ENDCHAR

STARTCHAR afii10054
ENCODING 165
SWIDTH 656 0
DWIDTH 7 0
BBX 6 7 0 0
BITMAP
7C
C4
E0
78
1C
8C
F8
ENDCHAR

STARTCHAR afii10055
ENCODING 166
SWIDTH 406 0
DWIDTH 5 0
BBX 4 7 0 0
BITMAP
F0
60
60
60
60
60
F0
ENDCHAR

STARTCHAR afii10056
ENCODING 167
SWIDTH 406 0
DWIDTH 5 0
BBX 5 9 0 0
BITMAP
D8
00
F0
60
60
60
60
60
F0
ENDCHAR

STARTCHAR afii10057
ENCODING 168
SWIDTH 406 0
DWIDTH 5 0
BBX 5 9 -1 -2
BITMAP
78
30
30
30
30
30
30
20
C0
ENDCHAR

STARTCHAR afii10058
ENCODING 169
SWIDTH 1086 0
DWIDTH 10 0
BBX 11 7 -1 0
BITMAP
7F00
2600
2600
27C0
2660
A660
CFC0
ENDCHAR

STARTCHAR afii10059
ENCODING 170
SWIDTH 1095 0
DWIDTH 11 0
BBX 11 7 0 0
BITMAP
E700
6600
6600
7FC0
6660
6660
E7C0
ENDCHAR

STARTCHAR afii10060
ENCODING 171
SWIDTH 854 0
DWIDTH 9 0
BBX 9 7 -1 0
BITMAP
FC00
B400
3000
3E00
3300
3300
7B80
ENDCHAR

STARTCHAR afii10061
ENCODING 172
SWIDTH 781 0
DWIDTH 8 0
BBX 8 10 0 0
BITMAP
04
08
00
F3
65
68
78
6C
66
F7
ENDCHAR

STARTCHAR hyphen
ENCODING 173
SWIDTH 458 0
DWIDTH 5 0
BBX 3 1 1 2
BITMAP
E0
ENDCHAR

STARTCHAR afii10062
ENCODING 174
SWIDTH 750 0
DWIDTH 8 0
BBX 8 10 0 0
BITMAP
24
18
00
F7
62
34
1C
0C
48
70
ENDCHAR

STARTCHAR afii10145
ENCODING 175
SWIDTH 854 0
DWIDTH 9 0
BBX 8 9 0 -2
BITMAP
E7
66
66
66
66
66
FF
10
10
ENDCHAR

STARTCHAR afii10017
ENCODING 176
SWIDTH 781 0
DWIDTH 7 0
BBX 8 7 -1 0
BITMAP
18
18
2C
2C
7E
46
EF
ENDCHAR

STARTCHAR afii10018
ENCODING 177
SWIDTH 740 0
DWIDTH 7 0
BBX 7 7 0 0
BITMAP
FE
62
60
7C
66
66
FC
ENDCHAR

STARTCHAR afii10019
ENCODING 178
SWIDTH 781 0
DWIDTH 8 0
BBX 7 7 0 0
BITMAP
FC
66
66
7C
66
66
FC
ENDCHAR

STARTCHAR afii10020
ENCODING 179
SWIDTH 646 0
DWIDTH 6 0
BBX 6 7 0 0
BITMAP
FC
64
60
60
60
60
F0
ENDCHAR

STARTCHAR afii10021
ENCODING 180
SWIDTH 781 0
DWIDTH 8 0
BBX 7 9 0 -2
BITMAP
7E
2C
2C
4C
4C
4C
FE
82
82
ENDCHAR

STARTCHAR afii10022
ENCODING 181
SWIDTH 750 0
DWIDTH 8 0
BBX 7 7 0 0
BITMAP
FE
62
68
78
68
62
FE
ENDCHAR

STARTCHAR afii10024
ENCODING 182
SWIDTH 1094 0
DWIDTH 11 0
BBX 10 7 0 0
BITMAP
DEC0
4C80
6D80
3F00
6D80
6D80
DEC0
ENDCHAR

STARTCHAR afii10025
ENCODING 183
SWIDTH 750 0
DWIDTH 8 0
BBX 7 7 0 0
BITMAP
3C
4E
06
1C
06
8E
7C
ENDCHAR

STARTCHAR afii10026
ENCODING 184
SWIDTH 854 0
DWIDTH 9 0
BBX 8 7 0 0
BITMAP
E7
66
6E
76
66
66
E7
ENDCHAR

STARTCHAR afii10027
ENCODING 185
SWIDTH 854 0
DWIDTH 9 0
BBX 8 10 0 0
BITMAP
24
18
00
E7
66
6E
76
66
66
E7
ENDCHAR

STARTCHAR afii10028
ENCODING 186
SWIDTH 781 0
DWIDTH 8 0
BBX 8 7 0 0
BITMAP
F3
65
68
78
6C
66
F7
ENDCHAR

STARTCHAR afii10029
ENCODING 187
SWIDTH 833 0
DWIDTH 8 0
BBX 8 7 -1 0
BITMAP
7F
26
26
26
26
A6
CF
ENDCHAR

STARTCHAR afii10030
ENCODING 188
SWIDTH 1010 0
DWIDTH 11 0
BBX 10 7 0 0
BITMAP
F1C0
7180
7A80
5A80
5C80
4C80
E9C0
ENDCHAR

STARTCHAR afii10031
ENCODING 189
SWIDTH 875 0
DWIDTH 9 0
BBX 8 7 0 0
BITMAP
E7
66
66
7E
66
66
E7
ENDCHAR

STARTCHAR afii10032
ENCODING 190
SWIDTH 875 0
DWIDTH 9 0
BBX 8 7 0 0
BITMAP
3C
66
C3
C3
C3
66
3C
ENDCHAR

STARTCHAR afii10033
ENCODING 191
SWIDTH 854 0
DWIDTH 9 0
BBX 8 7 0 0
BITMAP
FF
66
66
66
66
66
E7
ENDCHAR

STARTCHAR afii10034
ENCODING 192
SWIDTH 729 0
DWIDTH 7 0
BBX 7 7 0 0
BITMAP
FC
66
66
6C
60
60
F0
ENDCHAR

STARTCHAR afii10035
ENCODING 193
SWIDTH 802 0
DWIDTH 7 0
BBX 6 7 0 0
BITMAP
3C
64
C0
C0
C0
64
38
ENDCHAR

STARTCHAR afii10036
ENCODING 194
SWIDTH 740 0
DWIDTH 7 0
BBX 6 7 0 0
BITMAP
FC
B4
30
30
30
30
78
ENDCHAR

STARTCHAR afii10037
ENCODING 195
SWIDTH 750 0
DWIDTH 8 0
BBX 8 7 0 0
BITMAP
F7
62
34
1C
0C
48
70
ENDCHAR

STARTCHAR afii10038
ENCODING 196
SWIDTH 974 0
DWIDTH 10 0
BBX 9 7 0 0
BITMAP
1C00
7F00
C980
C980
C980
7F00
1C00
ENDCHAR

STARTCHAR afii10039
ENCODING 197
SWIDTH 781 0
DWIDTH 7 0
BBX 8 7 -1 0
BITMAP
F7
62
3C
18
3C
46
EF
ENDCHAR

STARTCHAR afii10040
ENCODING 198
SWIDTH 854 0
DWIDTH 9 0
BBX 8 9 0 -2
BITMAP
E7
66
66
66
66
66
FF
01
01
ENDCHAR

STARTCHAR afii10041
ENCODING 199
SWIDTH 854 0
DWIDTH 9 0
BBX 8 7 0 0
BITMAP
F7
66
66
6E
36
06
0F
ENDCHAR

STARTCHAR afii10042
ENCODING 200
SWIDTH 1125 0
DWIDTH 11 0
BBX 10 7 0 0
BITMAP
EDC0
6D80
6D80
6D80
6D80
6D80
FFC0
ENDCHAR

STARTCHAR afii10043
ENCODING 201
SWIDTH 1125 0
DWIDTH 11 0
BBX 10 9 0 -2
BITMAP
EDC0
6D80
6D80
6D80
6D80
6D80
FFC0
0040
0040
ENDCHAR

STARTCHAR afii10044
ENCODING 202
SWIDTH 832 0
DWIDTH 8 0
BBX 9 7 -2 0
BITMAP
FC00
9800
1800
1F00
1980
1980
3F00
ENDCHAR

STARTCHAR afii10045
ENCODING 203
SWIDTH 1125 0
DWIDTH 11 0
BBX 11 7 0 0
BITMAP
F1E0
60C0
60C0
7CC0
66C0
66C0
FDE0
ENDCHAR

STARTCHAR afii10046
ENCODING 204
SWIDTH 721 0
DWIDTH 7 0
BBX 7 7 0 0
BITMAP
F0
60
60
7C
66
66
FC
ENDCHAR

STARTCHAR afii10047
ENCODING 205
SWIDTH 802 0
DWIDTH 8 0
BBX 7 7 0 0
BITMAP
F8
8C
06
3E
06
8C
78
ENDCHAR

STARTCHAR afii10048
ENCODING 206
SWIDTH 1219 0
DWIDTH 12 0
BBX 12 7 0 0
BITMAP
F3C0
6660
6C30
7C30
6C30
6660
F3C0
ENDCHAR

STARTCHAR afii10049
ENCODING 207
SWIDTH 802 0
DWIDTH 8 0
BBX 8 7 0 0
BITMAP
3F
66
66
3E
36
66
EF
ENDCHAR

STARTCHAR afii10065
ENCODING 208
SWIDTH 563 0
DWIDTH 6 0
BBX 6 5 0 0
BITMAP
70
18
78
D8
6C
ENDCHAR

STARTCHAR afii10066
ENCODING 209
SWIDTH 583 0
DWIDTH 6 0
BBX 5 7 0 0
BITMAP
38
40
B0
D8
D8
D8
70
ENDCHAR

STARTCHAR afii10067
ENCODING 210
SWIDTH 573 0
DWIDTH 6 0
BBX 6 5 -1 0
BITMAP
F8
6C
78
6C
F8
ENDCHAR

STARTCHAR afii10068
ENCODING 211
SWIDTH 542 0
DWIDTH 5 0
BBX 5 5 -1 0
BITMAP
F8
68
60
60
F0
ENDCHAR

STARTCHAR afii10069
ENCODING 212
SWIDTH 565 0
DWIDTH 6 0
BBX 7 7 -1 -2
BITMAP
7C
2C
2C
4C
FC
82
82
ENDCHAR

STARTCHAR afii10070
ENCODING 213
SWIDTH 521 0
DWIDTH 5 0
BBX 5 5 0 0
BITMAP
70
D8
F8
C0
78
ENDCHAR

STARTCHAR afii10072
ENCODING 214
SWIDTH 1021 0
DWIDTH 10 0
BBX 9 5 0 0
BITMAP
9C80
C980
7F00
6B00
DD80
ENDCHAR

STARTCHAR afii10073
ENCODING 215
SWIDTH 521 0
DWIDTH 6 0
BBX 5 5 0 0
BITMAP
F0
98
30
98
70
ENDCHAR

STARTCHAR afii10074
ENCODING 216
SWIDTH 625 0
DWIDTH 6 0
BBX 7 5 -1 0
BITMAP
E6
6C
74
64
E6
ENDCHAR

STARTCHAR afii10075
ENCODING 217
SWIDTH 625 0
DWIDTH 6 0
BBX 7 8 -1 0
BITMAP
24
18
00
E6
6C
74
64
E6
ENDCHAR

STARTCHAR afii10076
ENCODING 218
SWIDTH 604 0
DWIDTH 6 0
BBX 7 5 -1 0
BITMAP
E6
6A
78
6C
E6
ENDCHAR

STARTCHAR afii10077
ENCODING 219
SWIDTH 573 0
DWIDTH 6 0
BBX 7 5 -1 0
BITMAP
7E
2C
2C
2C
CE
ENDCHAR

STARTCHAR afii10078
ENCODING 220
SWIDTH 781 0
DWIDTH 8 0
BBX 9 5 -1 0
BITMAP
7380
3700
3B00
5B00
CB80
ENDCHAR

STARTCHAR afii10079
ENCODING 221
SWIDTH 604 0
DWIDTH 6 0
BBX 7 5 -1 0
BITMAP
EE
6C
7C
6C
EE
ENDCHAR

STARTCHAR afii10080
ENCODING 222
SWIDTH 573 0
DWIDTH 6 0
BBX 5 5 0 0
BITMAP
70
D8
D8
D8
70
ENDCHAR

STARTCHAR afii10081
ENCODING 223
SWIDTH 615 0
DWIDTH 6 0
BBX 7 5 -1 0
BITMAP
FE
6C
6C
6C
EE
ENDCHAR

STARTCHAR afii10082
ENCODING 224
SWIDTH 615 0
DWIDTH 6 0
BBX 6 7 -1 -2
BITMAP
F8
6C
6C
6C
78
60
F0
ENDCHAR

STARTCHAR afii10083
ENCODING 225
SWIDTH 521 0
DWIDTH 5 0
BBX 5 5 0 0
BITMAP
78
C8
C0
C8
70
ENDCHAR

STARTCHAR afii10084
ENCODING 226
SWIDTH 583 0
DWIDTH 6 0
BBX 6 5 0 0
BITMAP
FC
B4
30
30
78
ENDCHAR

STARTCHAR afii10085
ENCODING 227
SWIDTH 542 0
DWIDTH 5 0
BBX 6 7 -1 -2
BITMAP
EC
68
68
30
30
20
C0
ENDCHAR

STARTCHAR afii10086
ENCODING 228
SWIDTH 823 0
DWIDTH 8 0
BBX 7 9 0 -2
BITMAP
30
10
54
FE
92
FE
54
10
38
ENDCHAR

STARTCHAR afii10087
ENCODING 229
SWIDTH 552 0
DWIDTH 7 0
BBX 6 5 0 0
BITMAP
CC
70
30
38
CC
ENDCHAR

STARTCHAR afii10088
ENCODING 230
SWIDTH 615 0
DWIDTH 6 0
BBX 7 7 -1 -2
BITMAP
EE
6C
6C
6C
FE
02
02
ENDCHAR

STARTCHAR afii10089
ENCODING 231
SWIDTH 594 0
DWIDTH 6 0
BBX 6 5 0 0
BITMAP
DC
D8
78
18
3C
ENDCHAR

STARTCHAR afii10090
ENCODING 232
SWIDTH 1022 0
DWIDTH 10 0
BBX 9 5 0 0
BITMAP
EB80
6B00
6B00
6B00
FF80
ENDCHAR

STARTCHAR afii10091
ENCODING 233
SWIDTH 1019 0
DWIDTH 10 0
BBX 9 7 0 -2
BITMAP
EB80
6B00
6B00
6B00
FF80
0080
0080
ENDCHAR

STARTCHAR afii10092
ENCODING 234
SWIDTH 729 0
DWIDTH 7 0
BBX 7 5 -1 0
BITMAP
F8
B0
3C
36
7C
ENDCHAR

STARTCHAR afii10093
ENCODING 235
SWIDTH 833 0
DWIDTH 8 0
BBX 9 5 -1 0
BITMAP
E780
6300
7300
6B00
F780
ENDCHAR

STARTCHAR afii10094
ENCODING 236
SWIDTH 563 0
DWIDTH 6 0
BBX 6 5 -1 0
BITMAP
F0
60
78
6C
F8
ENDCHAR

STARTCHAR afii10095
ENCODING 237
SWIDTH 521 0
DWIDTH 5 0
BBX 4 5 0 0
BITMAP
E0
30
70
30
E0
ENDCHAR

STARTCHAR afii10096
ENCODING 238
SWIDTH 854 0
DWIDTH 9 0
BBX 9 5 -1 0
BITMAP
F700
6D80
7D80
6D80
F700
ENDCHAR

STARTCHAR afii10097
ENCODING 239
SWIDTH 604 0
DWIDTH 6 0
BBX 6 5 0 0
BITMAP
7C
D8
38
58
DC
ENDCHAR

STARTCHAR afii61352
ENCODING 240
SWIDTH 1115 0
DWIDTH 11 0
BBX 10 7 0 0
BITMAP
E600
7480
7540
5D40
5C80
4C00
C5C0
ENDCHAR

STARTCHAR afii10071
ENCODING 241
SWIDTH 521 0
DWIDTH 5 0
BBX 5 7 0 0
BITMAP
D8
00
70
D8
F8
C0
78
ENDCHAR

STARTCHAR afii10099
ENCODING 242
SWIDTH 594 0
DWIDTH 6 0
BBX 6 9 -1 -2
BITMAP
60
F8
60
78
6C
6C
EC
08
10
ENDCHAR

STARTCHAR afii10100
ENCODING 243
SWIDTH 542 0
DWIDTH 5 0
BBX 5 8 0 0
BITMAP
10
20
00
F8
68
60
60
F0
ENDCHAR

STARTCHAR afii10101
ENCODING 244
SWIDTH 521 0
DWIDTH 5 0
BBX 4 5 0 0
BITMAP
70
C0
E0
C0
70
ENDCHAR

STARTCHAR afii10102
ENCODING 245
SWIDTH 458 0
DWIDTH 5 0
BBX 4 5 0 0
BITMAP
70
C0
70
30
E0
ENDCHAR

STARTCHAR afii10103
ENCODING 246
SWIDTH 333 0
DWIDTH 3 0
BBX 4 7 -1 0
BITMAP
60
00
E0
60
60
60
F0
ENDCHAR

STARTCHAR afii10104
ENCODING 247
SWIDTH 333 0
DWIDTH 3 0
BBX 5 7 -2 0
BITMAP
D8
00
70
30
30
30
78
ENDCHAR

STARTCHAR afii10105
ENCODING 248
SWIDTH 313 0
DWIDTH 3 0
BBX 3 9 -1 -2
BITMAP
60
00
E0
60
60
60
60
60
C0
ENDCHAR

STARTCHAR afii10106
ENCODING 249
SWIDTH 854 0
DWIDTH 9 0
BBX 8 5 0 0
BITMAP
FC
58
5E
5B
9E
ENDCHAR

STARTCHAR afii10107
ENCODING 250
SWIDTH 854 0
DWIDTH 9 0
BBX 9 5 -1 0
BITMAP
EE00
6C00
7F00
6D80
EF00
ENDCHAR

STARTCHAR afii10108
ENCODING 251
SWIDTH 625 0
DWIDTH 6 0
BBX 7 7 -1 0
BITMAP
60
F8
60
78
6C
6C
EE
ENDCHAR

STARTCHAR afii10109
ENCODING 252
SWIDTH 604 0
DWIDTH 6 0
BBX 7 8 -1 0
BITMAP
04
08
00
E6
6A
78
6C
E6
ENDCHAR

STARTCHAR section
ENCODING 253
SWIDTH 573 0
DWIDTH 6 0
BBX 5 9 0 -2
BITMAP
70
C8
C0
E0
D0
58
38
98
70
ENDCHAR

STARTCHAR afii10110
ENCODING 254
SWIDTH 542 0
DWIDTH 5 0
BBX 6 10 -1 -2
BITMAP
48
30
00
EC
68
68
30
30
20
C0
ENDCHAR

STARTCHAR afii10193
ENCODING 255
SWIDTH 612 0
DWIDTH 6 0
BBX 7 7 -1 -2
BITMAP
EE
6C
6C
6C
FE
10
10
ENDCHAR
ENDFONT
